# xmcd
#
# Track frame offsets: 
#        150
#        19889
#        35022
#        54750
#
# Disc length: 930 seconds
#
# Revision: 2
# Processed by: cddbd v1.5.2PL0 Copyright (c) Steve Scherf et al.
# Submitted via: ExactAudioCopy v1.0b3
#
DISCID=2903a004
DTITLE=fripSide - black bullet
DYEAR=2014
DGENRE=Anime
TTITLE0=black bullet
TTITLE1=pico scope -SACLA-
TTITLE2=black bullet <instrumental>
TTITLE3=pico scope -SACLA- <instrumental>
EXTD=YEAR: 2006
EXTT0=
EXTT1=
EXTT2=
EXTT3=
PLAYORDER=
